<svg xmlns="http://www.w3.org/2000/svg">
  <defs>
    <svg id="duke-som" x="0px" y="0px" viewBox="0 0 33 34"><path d="M25.73,26.62c-3.47,2.54-8.56,3.96-9,4.08v0c0.39-0.19,4.56-2.21,6.42-4.03c0.88-0.87,1.6-2.15,2.07-3.2 c-0.22,0.19-0.39,0.55-2.57,1.72c-2.07,1.1-5.56,2.35-5.92,2.47v-0.01c0.31-0.17,2.78-1.55,4.29-3.25c0.9-1.01,1.63-1.92,2-2.82
 c-1.77,1.41-5.9,2.93-6.29,3.07v-0.01c0.24-0.14,1.78-1.1,3.04-2.57c0.92-1.07,1.02-1.77,1.16-2.33c-1.94,1.54-3.93,1.83-4.2,1.87 V21.6c0.25-0.17,1.92-1.35,2-3.7c-1.53,1.39-2.84,0.9-3.46,0.35c-0.61-0.54-0.6-1.72-0.6-1.72V0.4h-2.05v1.5H9.9V0.4H7.85v1.5 H5.12V0.4H3.07v18.52c0,0,0.03,5.27,4.86,9.24c3.38,2.79,8.8,5.42,8.8,5.42c0.45-0.21,5.56-2.74,7.79-4.72 c1.6-1.42,2.35-2.34,2.89-3.56C26.93,25.73,26.36,26.16,25.73,26.62z"/><path d="M23.06,14.97V1.94h-1.87v15.52c0,0,0.06,1.11-0.27,2.29C23.38,18.17,23.06,14.97,23.06,14.97z"/><path d="M25.45,16.49V0.4h-1.87v18.41c0,0,0.06,1.27-0.56,2.77C25.44,19.62,25.45,16.49,25.45,16.49z"/><path d="M27.84,17.53V1.94h-1.87v17.92c0,0-0.16,2.46-0.74,3.58C27.87,21.75,27.84,17.53,27.84,17.53z"/><path d="M30.23,18.81V0.4h-1.88v21.06c0,0-0.1,1.9-0.95,3.82C30.35,22.45,30.23,18.81,30.23,18.81z"/><path d="M20.67,13.82V0.4H18.8v15.84c0,0,0,1.19-0.06,1.65C20.91,16.02,20.67,13.82,20.67,13.82z"/></svg>
    <svg id="abacus" viewBox="0 0 576 512"><path d="M192 440h-32v-48h32zM160 72v48h32V72zm96 160v48h32v-48zm-96 0v48h32v-48zm96 208h160v-48H256zm96-160h128v-48H352zM544 0a32 32 0 0 0-32 32v464a16 16 0 0 0 16 16h32a16 16 0 0 0 16-16V32a32 32 0 0 0-32-32zM416 72H256v48h160zM32 0A32 32 0 0 0 0 32v464a16 16 0 0 0 16 16h32a16 16 0 0 0 16-16V32A32 32 0 0 0 32 0z" style="opacity:.4" /><path d="M144 32h-32a16 16 0 0 0-16 16v96a16 16 0 0 0 16 16h32a16 16 0 0 0 16-16V48a16 16 0 0 0-16-16zm96 0h-32a16 16 0 0 0-16 16v96a16 16 0 0 0 16 16h32a16 16 0 0 0 16-16V48a16 16 0 0 0-16-16zm-96 160h-32a16 16 0 0 0-16 16v96a16 16 0 0 0 16 16h32a16 16 0 0 0 16-16v-96a16 16 0 0 0-16-16zm192 0h-32a16 16 0 0 0-16 16v96a16 16 0 0 0 16 16h32a16 16 0 0 0 16-16v-96a16 16 0 0 0-16-16zm-96 0h-32a16 16 0 0 0-16 16v96a16 16 0 0 0 16 16h32a16 16 0 0 0 16-16v-96a16 16 0 0 0-16-16zM464 32h-32a16 16 0 0 0-16 16v96a16 16 0 0 0 16 16h32a16 16 0 0 0 16-16V48a16 16 0 0 0-16-16zM144 352h-32a16 16 0 0 0-16 16v96a16 16 0 0 0 16 16h32a16 16 0 0 0 16-16v-96a16 16 0 0 0-16-16zm96 0h-32a16 16 0 0 0-16 16v96a16 16 0 0 0 16 16h32a16 16 0 0 0 16-16v-96a16 16 0 0 0-16-16zm224 0h-32a16 16 0 0 0-16 16v96a16 16 0 0 0 16 16h32a16 16 0 0 0 16-16v-96a16 16 0 0 0-16-16z"/></svg>
    <svg id="align-slash" viewBox="0 0 640 512"><path d="M528 352h-31.46l-82.81-64H528a16 16 0 0 1 16 16v32a16 16 0 0 1-16 16zM96 304v32a16 16 0 0 0 16 16h175.21l-82.8-64H112a16 16 0 0 0-16 16zM528 96a16 16 0 0 0 16-16V48a16 16 0 0 0-16-16H112a15.82 15.82 0 0 0-15 11.18L165.31 96zM112 416a16 16 0 0 0-16 16v32a16 16 0 0 0 16 16h340.83L370 416zm416-256H248.12l82.81 64H528a16 16 0 0 0 16-16v-32a16 16 0 0 0-16-16z" style="opacity:.4" /><path d="M633.82 458.1L45.46 3.38A16 16 0 0 0 23 6.19L3.37 31.46a16 16 0 0 0 2.81 22.45l588.36 454.72a16 16 0 0 0 22.46-2.81l19.64-25.27a16 16 0 0 0-2.82-22.45z" /></svg>
    <svg id="badge-check" viewBox="0 0 512 512"><path d="M512 256a88 88 0 0 0-57.1-82.4A88 88 0 0 0 338.4 57.1a88 88 0 0 0-164.8 0A88 88 0 0 0 57.1 173.6a88 88 0 0 0 0 164.8 88 88 0 0 0 116.5 116.5 88 88 0 0 0 164.8 0 88 88 0 0 0 116.5-116.5A88 88 0 0 0 512 256zm-144.8-44.25l-131 130a11 11 0 0 1-15.55-.06l-75.72-76.33a11 11 0 0 1 .06-15.56L171 224a11 11 0 0 1 15.56.06l42.15 42.49 97.2-96.42a11 11 0 0 1 15.55.06l25.82 26a11 11 0 0 1-.08 15.56z" style="opacity:.4"/><path d="M367.2 211.75l-131 130a11 11 0 0 1-15.55-.06l-75.72-76.33a11 11 0 0 1 .06-15.56L171 224a11 11 0 0 1 15.56.06l42.15 42.49 97.2-96.42a11 11 0 0 1 15.55.06l25.82 26a11 11 0 0 1-.06 15.56z"/></svg>
    <svg id="bars" viewBox="0 0 448 512"><path d="M16 288h416a16 16 0 0 0 16-16v-32a16 16 0 0 0-16-16H16a16 16 0 0 0-16 16v32a16 16 0 0 0 16 16z" style="opacity:.4" /><path d="M432 384H16a16 16 0 0 0-16 16v32a16 16 0 0 0 16 16h416a16 16 0 0 0 16-16v-32a16 16 0 0 0-16-16zm0-320H16A16 16 0 0 0 0 80v32a16 16 0 0 0 16 16h416a16 16 0 0 0 16-16V80a16 16 0 0 0-16-16z" /></svg>
    <svg id="calendar" viewBox="0 0 448 512"><path d="M0 192v272a48 48 0 0 0 48 48h352a48 48 0 0 0 48-48V192zm304-64h32a16 16 0 0 0 16-16V16a16 16 0 0 0-16-16h-32a16 16 0 0 0-16 16v96a16 16 0 0 0 16 16zm-192 0h32a16 16 0 0 0 16-16V16a16 16 0 0 0-16-16h-32a16 16 0 0 0-16 16v96a16 16 0 0 0 16 16z" style="opacity:.4" /><path d="M448 112v80H0v-80a48 48 0 0 1 48-48h48v48a16 16 0 0 0 16 16h32a16 16 0 0 0 16-16V64h128v48a16 16 0 0 0 16 16h32a16 16 0 0 0 16-16V64h48a48 48 0 0 1 48 48z" /></svg>
    <svg id="calendar-alt" viewBox="0 0 448 512"><path d="M0 192v272a48 48 0 0 0 48 48h352a48 48 0 0 0 48-48V192zm128 244a12 12 0 0 1-12 12H76a12 12 0 0 1-12-12v-40a12 12 0 0 1 12-12h40a12 12 0 0 1 12 12zm0-128a12 12 0 0 1-12 12H76a12 12 0 0 1-12-12v-40a12 12 0 0 1 12-12h40a12 12 0 0 1 12 12zm128 128a12 12 0 0 1-12 12h-40a12 12 0 0 1-12-12v-40a12 12 0 0 1 12-12h40a12 12 0 0 1 12 12zm0-128a12 12 0 0 1-12 12h-40a12 12 0 0 1-12-12v-40a12 12 0 0 1 12-12h40a12 12 0 0 1 12 12zm128 128a12 12 0 0 1-12 12h-40a12 12 0 0 1-12-12v-40a12 12 0 0 1 12-12h40a12 12 0 0 1 12 12zm0-128a12 12 0 0 1-12 12h-40a12 12 0 0 1-12-12v-40a12 12 0 0 1 12-12h40a12 12 0 0 1 12 12zm-80-180h32a16 16 0 0 0 16-16V16a16 16 0 0 0-16-16h-32a16 16 0 0 0-16 16v96a16 16 0 0 0 16 16zm-192 0h32a16 16 0 0 0 16-16V16a16 16 0 0 0-16-16h-32a16 16 0 0 0-16 16v96a16 16 0 0 0 16 16z" style="opacity:.4" /><path d="M448 112v80H0v-80a48 48 0 0 1 48-48h48v48a16 16 0 0 0 16 16h32a16 16 0 0 0 16-16V64h128v48a16 16 0 0 0 16 16h32a16 16 0 0 0 16-16V64h48a48 48 0 0 1 48 48z" /></svg>
    <svg id="calendar-day" viewBox="0 0 448 512"><path d="M0 192v272a48 48 0 0 0 48 48h352a48 48 0 0 0 48-48V192zm192 176a16 16 0 0 1-16 16H80a16 16 0 0 1-16-16v-96a16 16 0 0 1 16-16h96a16 16 0 0 1 16 16zm112-240h32a16 16 0 0 0 16-16V16a16 16 0 0 0-16-16h-32a16 16 0 0 0-16 16v96a16 16 0 0 0 16 16zm-192 0h32a16 16 0 0 0 16-16V16a16 16 0 0 0-16-16h-32a16 16 0 0 0-16 16v96a16 16 0 0 0 16 16z" style="opacity:.4" /><path d="M448 112v80H0v-80a48 48 0 0 1 48-48h48v48a16 16 0 0 0 16 16h32a16 16 0 0 0 16-16V64h128v48a16 16 0 0 0 16 16h32a16 16 0 0 0 16-16V64h48a48 48 0 0 1 48 48z" /></svg>
    <svg id="chalkboard" viewBox="0 0 640 512"><path d="M624 448h-16V40a40 40 0 0 0-40-40H72a40 40 0 0 0-40 40v408H16a16 16 0 0 0-16 16v32a16 16 0 0 0 16 16h608a16 16 0 0 0 16-16v-32a16 16 0 0 0-16-16zm-528 0V64h448v384z" style="opacity:.4" /><path d="M544 64v384h-64v-64H288v64H96V64z" /></svg>
    <svg id="chevron-left" viewBox="0 0 320 512" class="svg-inline--fa fa-chevron-left fa-w-10 fa-9x"><path d="M285.59 410.4a23.93 23.93 0 0 1 0 33.84l-22.7 22.65a24 24 0 0 1-33.94 0l-154.31-154L131.42 256z" style="opacity:.4" /><path d="M262.85 45.06l22.7 22.65a23.93 23.93 0 0 1 0 33.84L74.58 312.9l-40-40a23.94 23.94 0 0 1 0-33.84l194.33-194a24 24 0 0 1 33.94 0z" /></svg>
    <svg id="chevron-right" viewBox="0 0 320 512"><path d="M188.74 256l56.78 56.89L91.21 466.9a24 24 0 0 1-33.94 0l-22.7-22.65a23.93 23.93 0 0 1 0-33.84z" style="opacity:.4" /><path fill="currentColor" d="M91.25 45.06l194.33 194a23.93 23.93 0 0 1 0 33.84l-40 40-211-211.34a23.92 23.92 0 0 1 0-33.84l22.7-22.65a24 24 0 0 1 33.97-.01z" /></svg>
    <svg id="cloud-upload" viewBox="0 0 640 512"><path d="M537.6 226.6A96.11 96.11 0 0 0 448 96a95.51 95.51 0 0 0-53.3 16.2A160 160 0 0 0 96 192c0 2.7.1 5.4.2 8.1A144 144 0 0 0 144 480h368a128 128 0 0 0 25.6-253.4zm-139.9 63.7l-10.8 10.8a24.09 24.09 0 0 1-34.5-.5L320 266.1V392a23.94 23.94 0 0 1-24 24h-16a23.94 23.94 0 0 1-24-24V266.1l-32.4 34.5a24 24 0 0 1-34.5.5l-10.8-10.8a23.9 23.9 0 0 1 0-33.9l92.7-92.7a23.9 23.9 0 0 1 33.9 0l92.7 92.7a24 24 0 0 1 .1 33.9z"  style="opacity:.4" /><path d="M397.7 290.3l-10.8 10.8a24.09 24.09 0 0 1-34.5-.5L320 266.1V392a23.94 23.94 0 0 1-24 24h-16a23.94 23.94 0 0 1-24-24V266.1l-32.4 34.5a24 24 0 0 1-34.5.5l-10.8-10.8a23.9 23.9 0 0 1 0-33.9l92.7-92.7a23.9 23.9 0 0 1 33.9 0l92.7 92.7a24 24 0 0 1 .1 33.9z" /></svg>
    <svg id="cogs" viewBox="0 0 640 512"><path d="M638.41 387a12.34 12.34 0 0 0-12.2-10.3h-16.5a86.33 86.33 0 0 0-15.9-27.4L602 335a12.42 12.42 0 0 0-2.8-15.7 110.5 110.5 0 0 0-32.1-18.6 12.36 12.36 0 0 0-15.1 5.4l-8.2 14.3a88.86 88.86 0 0 0-31.7 0l-8.2-14.3a12.36 12.36 0 0 0-15.1-5.4 111.83 111.83 0 0 0-32.1 18.6 12.3 12.3 0 0 0-2.8 15.7l8.2 14.3a86.33 86.33 0 0 0-15.9 27.4h-16.5a12.43 12.43 0 0 0-12.2 10.4 112.66 112.66 0 0 0 0 37.1 12.34 12.34 0 0 0 12.2 10.3h16.5a86.33 86.33 0 0 0 15.9 27.4l-8.2 14.3a12.42 12.42 0 0 0 2.8 15.7 110.5 110.5 0 0 0 32.1 18.6 12.36 12.36 0 0 0 15.1-5.4l8.2-14.3a88.86 88.86 0 0 0 31.7 0l8.2 14.3a12.36 12.36 0 0 0 15.1 5.4 111.83 111.83 0 0 0 32.1-18.6 12.3 12.3 0 0 0 2.8-15.7l-8.2-14.3a86.33 86.33 0 0 0 15.9-27.4h16.5a12.43 12.43 0 0 0 12.2-10.4 112.66 112.66 0 0 0 .01-37.1zm-136.8 44.9c-29.6-38.5 14.3-82.4 52.8-52.8 29.59 38.49-14.3 82.39-52.8 52.79zm136.8-343.8a12.34 12.34 0 0 0-12.2-10.3h-16.5a86.33 86.33 0 0 0-15.9-27.4l8.2-14.3a12.42 12.42 0 0 0-2.8-15.7 110.5 110.5 0 0 0-32.1-18.6A12.36 12.36 0 0 0 552 7.19l-8.2 14.3a88.86 88.86 0 0 0-31.7 0l-8.2-14.3a12.36 12.36 0 0 0-15.1-5.4 111.83 111.83 0 0 0-32.1 18.6 12.3 12.3 0 0 0-2.8 15.7l8.2 14.3a86.33 86.33 0 0 0-15.9 27.4h-16.5a12.43 12.43 0 0 0-12.2 10.4 112.66 112.66 0 0 0 0 37.1 12.34 12.34 0 0 0 12.2 10.3h16.5a86.33 86.33 0 0 0 15.9 27.4l-8.2 14.3a12.42 12.42 0 0 0 2.8 15.7 110.5 110.5 0 0 0 32.1 18.6 12.36 12.36 0 0 0 15.1-5.4l8.2-14.3a88.86 88.86 0 0 0 31.7 0l8.2 14.3a12.36 12.36 0 0 0 15.1 5.4 111.83 111.83 0 0 0 32.1-18.6 12.3 12.3 0 0 0 2.8-15.7l-8.2-14.3a86.33 86.33 0 0 0 15.9-27.4h16.5a12.43 12.43 0 0 0 12.2-10.4 112.66 112.66 0 0 0 .01-37.1zm-136.8 45c-29.6-38.5 14.3-82.5 52.8-52.8 29.59 38.49-14.3 82.39-52.8 52.79z" style="opacity:.4" /><path d="M420 303.79L386.31 287a173.78 173.78 0 0 0 0-63.5l33.7-16.8c10.1-5.9 14-18.2 10-29.1-8.9-24.2-25.9-46.4-42.1-65.8a23.93 23.93 0 0 0-30.3-5.3l-29.1 16.8a173.66 173.66 0 0 0-54.9-31.7V58a24 24 0 0 0-20-23.6 228.06 228.06 0 0 0-76 .1A23.82 23.82 0 0 0 158 58v33.7a171.78 171.78 0 0 0-54.9 31.7L74 106.59a23.91 23.91 0 0 0-30.3 5.3c-16.2 19.4-33.3 41.6-42.2 65.8a23.84 23.84 0 0 0 10.5 29l33.3 16.9a173.24 173.24 0 0 0 0 63.4L12 303.79a24.13 24.13 0 0 0-10.5 29.1c8.9 24.1 26 46.3 42.2 65.7a23.93 23.93 0 0 0 30.3 5.3l29.1-16.7a173.66 173.66 0 0 0 54.9 31.7v33.6a24 24 0 0 0 20 23.6 224.88 224.88 0 0 0 75.9 0 23.93 23.93 0 0 0 19.7-23.6v-33.6a171.78 171.78 0 0 0 54.9-31.7l29.1 16.8a23.91 23.91 0 0 0 30.3-5.3c16.2-19.4 33.7-41.6 42.6-65.8a24 24 0 0 0-10.5-29.1zm-151.3 4.3c-77 59.2-164.9-28.7-105.7-105.7 77-59.2 164.91 28.7 105.71 105.7z" /></svg>
    <svg id="comments" viewBox="0 0 576 512"><path d="M208 352c-41 0-79.1-9.3-111.3-25-21.8 12.7-52.1 25-88.7 25a7.83 7.83 0 0 1-7.3-4.8 8 8 0 0 1 1.5-8.7c.3-.3 22.4-24.3 35.8-54.5-23.9-26.1-38-57.7-38-92C0 103.6 93.1 32 208 32s208 71.6 208 160-93.1 160-208 160z" style="opacity:.4" /><path d="M576 320c0 34.3-14.1 66-38 92 13.4 30.3 35.5 54.2 35.8 54.5a8 8 0 0 1 1.5 8.7 7.88 7.88 0 0 1-7.3 4.8c-36.6 0-66.9-12.3-88.7-25-32.2 15.8-70.3 25-111.3 25-86.2 0-160.2-40.4-191.7-97.9A299.82 299.82 0 0 0 208 384c132.3 0 240-86.1 240-192a148.61 148.61 0 0 0-1.3-20.1C522.5 195.8 576 253.1 576 320z" /></svg>
    <svg id="edit" viewBox="0 0 576 512"><path d="M564.6 60.2l-48.8-48.8a39.11 39.11 0 0 0-55.2 0l-35.4 35.4a9.78 9.78 0 0 0 0 13.8l90.2 90.2a9.78 9.78 0 0 0 13.8 0l35.4-35.4a39.11 39.11 0 0 0 0-55.2zM427.5 297.6l-40 40a12.3 12.3 0 0 0-3.5 8.5v101.8H64v-320h229.8a12.3 12.3 0 0 0 8.5-3.5l40-40a12 12 0 0 0-8.5-20.5H48a48 48 0 0 0-48 48v352a48 48 0 0 0 48 48h352a48 48 0 0 0 48-48V306.1a12 12 0 0 0-20.5-8.5z" style="opacity:.4" /><path d="M492.8 173.3a9.78 9.78 0 0 1 0 13.8L274.4 405.5l-92.8 10.3a19.45 19.45 0 0 1-21.5-21.5l10.3-92.8L388.8 83.1a9.78 9.78 0 0 1 13.8 0z" /></svg>
    <svg id="envelope" viewBox="0 0 512 512"><path d="M256.47 352h-.94c-30.1 0-60.41-23.42-82.54-40.52C169.39 308.7 24.77 202.7 0 183.33V400a48 48 0 0 0 48 48h416a48 48 0 0 0 48-48V183.36c-24.46 19.17-169.4 125.34-173 128.12-22.12 17.1-52.43 40.52-82.53 40.52zM464 64H48a48 48 0 0 0-48 48v19a24.08 24.08 0 0 0 9.2 18.9c30.6 23.9 40.7 32.4 173.4 128.7 16.8 12.2 50.2 41.8 73.4 41.4 23.2.4 56.6-29.2 73.4-41.4 132.7-96.3 142.8-104.7 173.4-128.7A23.93 23.93 0 0 0 512 131v-19a48 48 0 0 0-48-48z" style="opacity:.4" /><path d="M512 131v52.36c-24.46 19.17-169.4 125.34-173 128.12-22.12 17.1-52.43 40.52-82.53 40.52h-.94c-30.1 0-60.41-23.42-82.54-40.52C169.39 308.7 24.77 202.7 0 183.33V131a24.08 24.08 0 0 0 9.2 18.9c30.6 23.9 40.7 32.4 173.4 128.7 16.69 12.12 49.75 41.4 72.93 41.4h.94c23.18 0 56.24-29.28 72.93-41.4 132.7-96.3 142.8-104.7 173.4-128.7A23.93 23.93 0 0 0 512 131z" /></svg>
    <svg id="ellipsis-v" viewBox="0 0 192 512"><path d="M96 184a72 72 0 1 0 72 72 72 72 0 0 0-72-72z" style="opacity:.4" /><path d="M96 152a72 72 0 1 0-72-72 72 72 0 0 0 72 72zm0 208a72 72 0 1 0 72 72 72 72 0 0 0-72-72z" /></svg>
    <svg id="exclamation-triangle" viewBox="0 0 576 512"><g class="fa-group"><path d="M569.52 440L329.58 24c-18.44-32-64.69-32-83.16 0L6.48 440c-18.42 31.94 4.64 72 41.57 72h479.89c36.87 0 60.06-40 41.58-72zM288 448a32 32 0 1 1 32-32 32 32 0 0 1-32 32zm38.24-238.41l-12.8 128A16 16 0 0 1 297.52 352h-19a16 16 0 0 1-15.92-14.41l-12.8-128A16 16 0 0 1 265.68 192h44.64a16 16 0 0 1 15.92 17.59z" style="opacity:.4" /><path d="M310.32 192h-44.64a16 16 0 0 0-15.92 17.59l12.8 128A16 16 0 0 0 278.48 352h19a16 16 0 0 0 15.92-14.41l12.8-128A16 16 0 0 0 310.32 192zM288 384a32 32 0 1 0 32 32 32 32 0 0 0-32-32z" /></g></svg>
    <svg id="eraser" viewBox="0 0 512 512"><path d="M512 428v40a12 12 0 0 1-12 12H144a48 48 0 0 1-33.94-14.06l-96-96a48 48 0 0 1 0-67.88l136-136 227.88 227.88L355.88 416H500a12 12 0 0 1 12 12z" style="opacity:.4" /><path d="M377.94 393.94l120-120a48 48 0 0 0 0-67.88l-160-160a48 48 0 0 0-67.88 0l-120 120 45.25 45.25z" /></svg>
    <svg id="file-alt" viewBox="0 0 384 512"><path d="M384 128H272a16 16 0 0 1-16-16V0H24A23.94 23.94 0 0 0 0 23.88V488a23.94 23.94 0 0 0 23.88 24H360a23.94 23.94 0 0 0 24-23.88V128zm-96 244a12 12 0 0 1-12 12H108a12 12 0 0 1-12-12v-8a12 12 0 0 1 12-12h168a12 12 0 0 1 12 12zm0-64a12 12 0 0 1-12 12H108a12 12 0 0 1-12-12v-8a12 12 0 0 1 12-12h168a12 12 0 0 1 12 12zm0-64a12 12 0 0 1-12 12H108a12 12 0 0 1-12-12v-8a12 12 0 0 1 12-12h168a12 12 0 0 1 12 12z" style="opacity:.4" /><path d="M377 105L279.1 7a24 24 0 0 0-17-7H256v112a16 16 0 0 0 16 16h112v-6.1a23.9 23.9 0 0 0-7-16.9zM276 352H108a12 12 0 0 0-12 12v8a12 12 0 0 0 12 12h168a12 12 0 0 0 12-12v-8a12 12 0 0 0-12-12zm0-64H108a12 12 0 0 0-12 12v8a12 12 0 0 0 12 12h168a12 12 0 0 0 12-12v-8a12 12 0 0 0-12-12zm0-64H108a12 12 0 0 0-12 12v8a12 12 0 0 0 12 12h168a12 12 0 0 0 12-12v-8a12 12 0 0 0-12-12z" /></svg>
    <svg id="file-contract" viewBox="0 0 384 512"><path d="M384 128H272a16 16 0 0 1-16-16V0H24A23.94 23.94 0 0 0 0 23.88V488a23.94 23.94 0 0 0 23.88 24H360a23.94 23.94 0 0 0 24-23.88V128zM64 72a8 8 0 0 1 8-8h80a8 8 0 0 1 8 8v16a8 8 0 0 1-8 8H72a8 8 0 0 1-8-8zm0 64a8 8 0 0 1 8-8h80a8 8 0 0 1 8 8v16a8 8 0 0 1-8 8H72a8 8 0 0 1-8-8zm240 280h-47.19a43 43 0 0 1-38.64-23.86 11.08 11.08 0 0 0-10.17-6.52 10.91 10.91 0 0 0-10 6.19l-7.67 15.34A16 16 0 0 1 176 416a8.77 8.77 0 0 1-1.14-.05 16 16 0 0 1-14-10.89L144 354.59l-10.61 31.88a43.17 43.17 0 0 1-41 29.53H80a16 16 0 0 1 0-32h12.39a11.21 11.21 0 0 0 10.61-7.66l18.19-54.64a24 24 0 0 1 45.55 0l13.88 41.64c19.8-16.19 54.08-9.7 66 14.16a11.39 11.39 0 0 0 10.16 6.5H304a16 16 0 0 1 0 32z"  style="opacity:.4" /><path d="M377 105L279.1 7a24 24 0 0 0-17-7H256v112a16 16 0 0 0 16 16h112v-6.1a23.9 23.9 0 0 0-7-16.9zm-73 279h-47.19a11.39 11.39 0 0 1-10.16-6.5c-12-23.86-46.23-30.35-66-14.16l-13.91-41.64a24 24 0 0 0-45.55 0L103 376.34A11.21 11.21 0 0 1 92.39 384H80a16 16 0 0 0 0 32h12.39a43.17 43.17 0 0 0 41-29.53L144 354.59l16.86 50.47a16 16 0 0 0 14 10.89 8.77 8.77 0 0 0 1.14.05 16 16 0 0 0 14.33-8.85l7.67-15.34a10.91 10.91 0 0 1 10-6.19 11.08 11.08 0 0 1 10.17 6.52A43 43 0 0 0 256.81 416H304a16 16 0 0 0 0-32z" /></svg>
    <svg id="file-search" viewBox="0 0 640 512"><path d="M300.59 257.71a160.1 160.1 0 0 0 83.41 209v21.45A23.94 23.94 0 0 1 360 512H23.88A23.94 23.94 0 0 1 0 488V23.88A23.94 23.94 0 0 1 24 0h232v112a16 16 0 0 0 16 16h112v45.33a160.34 160.34 0 0 0-83.41 84.38z" style="opacity:.4" /><path d="M384 121.9a23.9 23.9 0 0 0-7-16.9L279.1 7a24 24 0 0 0-17-7H256v112a16 16 0 0 0 16 16h112zm251.31 340.16l-77.41-77.41A126.65 126.65 0 0 0 576 320a128 128 0 1 0-128 128c23.7 0 45.61-6.88 64.65-18.11l77.41 77.42a16 16 0 0 0 22.63 0l22.62-22.62a16 16 0 0 0 0-22.63zM448 384a64 64 0 1 1 64-64 64 64 0 0 1-64 64z" /></svg>
    <svg id="file-signature" viewBox="0 0 576 512"><path d="M64 400a16 16 0 0 0 16 16h12.39a43.17 43.17 0 0 0 41-29.53L144 354.59l16.83 50.47c4.45 13.46 23.11 14.87 29.48 2.09l7.69-15.34a10.91 10.91 0 0 1 10-6.19 11.08 11.08 0 0 1 10.17 6.52A43 43 0 0 0 256 416h101l27-27.19v99.31A23.94 23.94 0 0 1 360 512H23.88A23.94 23.94 0 0 1 0 488V23.88A23.94 23.94 0 0 1 24 0h232v112a16 16 0 0 0 16 16h112v123.67L288 347v37h-32a11.63 11.63 0 0 1-9.35-6.5c-11.94-23.86-46.25-30.35-66-14.16l-13.88-41.64a24 24 0 0 0-45.55 0L103 376.34A11.21 11.21 0 0 1 92.39 384H80a16 16 0 0 0-16 16z" style="opacity:.4" /><path d="M384 121.9a23.9 23.9 0 0 0-7-16.9L279.1 7a24 24 0 0 0-17-7H256v112a16 16 0 0 0 16 16h112zM288 347v69h69l161.67-162.78-67.88-67.88zm280.56-179.65l-31.87-31.87a25.48 25.48 0 0 0-36 0l-27.25 27.25 67.88 67.88 27.25-27.25a25.45 25.45 0 0 0-.01-36.01z" /></svg>
    <svg id="file-user" viewBox="0 0 384 512"><path d="M384 128H272a16 16 0 0 1-16-16V0H24A23.94 23.94 0 0 0 0 23.88V488a23.94 23.94 0 0 0 23.88 24H360a23.94 23.94 0 0 0 24-23.88V128zm-192 64a64 64 0 1 1-64 64 64 64 0 0 1 64-64zm112 236.8c0 10.61-10 19.2-22.4 19.2H102.4C90 448 80 439.4 80 428.8v-19.2c0-31.81 30.09-57.6 67.1-57.6h5a103.22 103.22 0 0 0 79.7 0h5c37.11 0 67.2 25.79 67.2 57.6z" style="opacity:.4" /><path d="M377 105L279.1 7a24 24 0 0 0-17-7H256v112a16 16 0 0 0 16 16h112v-6.1a23.9 23.9 0 0 0-7-16.9zM192 320a64 64 0 1 0-64-64 64 64 0 0 0 64 64zm44.8 32h-5a103.22 103.22 0 0 1-79.7 0h-5c-37 0-67.1 25.79-67.1 57.6v19.2c0 10.6 10 19.2 22.4 19.2h179.2c12.37 0 22.4-8.59 22.4-19.2v-19.2c0-31.81-30.09-57.6-67.2-57.6z" /></svg>
    <svg id="flask" viewBox="0 0 448 512"><path d="M138.07 320h171.84l72.93 117.29a6.4 6.4 0 0 1 .09 7.12 6.11 6.11 0 0 1-5.88 3.52H70.89a6.08 6.08 0 0 1-5.89-3.46 6.45 6.45 0 0 1 .11-7.18z" style="opacity:.4" /><path d="M112 64h224a16 16 0 0 0 16-16V16a16 16 0 0 0-16-16H112a16 16 0 0 0-16 16v32a16 16 0 0 0 16 16zm325.19 339.5L320 215V96h-64v137.27l126.85 204a6.4 6.4 0 0 1 .09 7.12 6.11 6.11 0 0 1-5.88 3.52H70.89a6.08 6.08 0 0 1-5.89-3.44 6.45 6.45 0 0 1 .11-7.18L192 233.27V96h-64v119L10.79 403.5c-29.3 47.1 4.5 108.5 60.1 108.5h306.2c55.7 0 89.4-61.5 60.1-108.5z" /></svg>
    <svg id="globe-americas" viewBox="0 0 496 512"><path d="M489.55,312.41C464,422.22,365.59,504,248,504,111,504,0,393,0,256A247,247,0,0,1,56,99v45.71a50,50,0,0,0,8.55,27.95c11.72,17.39,28.38,42.07,35.67,52.77a114.79,114.79,0,0,0,18.06,20.74l.8.72a144.26,144.26,0,0,0,31.65,21.75c14,7.05,34.44,18.16,48.81,26.11a31.9,31.9,0,0,1,16.46,28v32a32,32,0,0,0,9.37,22.63c15,15,24.32,38.63,22.63,51.25V457.7a21,21,0,0,0,23.49,20.85c1.75-.21,3.49-.44,5.23-.7a20.91,20.91,0,0,0,17.17-15.76L308,404.46c2-5.49,3.26-11.21,4.77-16.87A23.9,23.9,0,0,1,319,376.88c3.32-3.33,7.41-7.4,11.31-11.28a46.46,46.46,0,0,0,13.72-33A30.49,30.49,0,0,0,335.1,311l-13.71-13.67A32,32,0,0,0,298.76,288H232c-9.41-4.71-21.48-32-32-32a67.72,67.72,0,0,1-30.31-7.16l-11.08-5.54a12,12,0,0,1,1.56-22l31.17-10.39A16,16,0,0,1,206.9,214l9.28,8.06a8,8,0,0,0,5.24,2h5.64a8,8,0,0,0,7.15-11.58l-15.59-31.19A8,8,0,0,1,220.2,172l9.92-9.65A8,8,0,0,1,235.7,160h9a8,8,0,0,0,5.66-2.34l8-8a8,8,0,0,0,0-11.31l-4.69-4.69a8,8,0,0,1,0-11.31L264,112l4.69-4.68a16,16,0,0,0,0-22.63h0l-24.4-24.4a12.38,12.38,0,0,0-9.55-3.61c-2.53.17-5.05.38-7.58.65A12.41,12.41,0,0,0,216,69.66a16.35,16.35,0,0,1-11.59,15.83,16,16,0,0,1-11.57-1.07,66.09,66.09,0,0,1-16-11.24L136.26,34.54A247,247,0,0,1,248,8C351.83,8,440.71,71.76,477.67,162.27l-36.51,3.15a76.22,76.22,0,0,0-27.48,7.74,24.05,24.05,0,0,0-9.24,8.15l-19.59,29.38a24,24,0,0,0,0,26.62l18,27a24,24,0,0,0,10.54,8.78l20.52,10.1Z" style="opacity:.4" /><path d="M321.39,297.36A32,32,0,0,0,298.76,288H232c-9.41-4.71-21.48-32-32-32a67.72,67.72,0,0,1-30.31-7.16l-11.08-5.54a12,12,0,0,1,1.56-22l31.17-10.39A16,16,0,0,1,206.9,214l9.28,8.06a8,8,0,0,0,5.24,2h5.64a8,8,0,0,0,7.15-11.58l-15.59-31.19A8,8,0,0,1,220.2,172l9.92-9.65A8,8,0,0,1,235.7,160h9a8,8,0,0,0,5.66-2.34l8-8a8,8,0,0,0,0-11.31l-4.69-4.69a8,8,0,0,1,0-11.31L264,112l4.69-4.68a16,16,0,0,0,0-22.63h0l-24.4-24.4a12.38,12.38,0,0,0-9.55-3.61c-2.53.17-5.05.38-7.58.65A12.41,12.41,0,0,0,216,69.66a16.35,16.35,0,0,1-11.59,15.83,16,16,0,0,1-11.57-1.07,66.09,66.09,0,0,1-16-11.24L136.26,34.54A249,249,0,0,0,56,99v45.71a50,50,0,0,0,8.55,27.95c11.72,17.39,28.38,42.07,35.67,52.77a114.79,114.79,0,0,0,18.06,20.74l.8.72a144.26,144.26,0,0,0,31.65,21.75c14,7.05,34.44,18.16,48.81,26.11a31.9,31.9,0,0,1,16.46,28v32a32,32,0,0,0,9.37,22.63c15,15,24.32,38.63,22.63,51.25V457.7a21,21,0,0,0,23.49,20.85c1.75-.21,3.49-.44,5.23-.7a20.91,20.91,0,0,0,17.17-15.76L308,404.46c2-5.49,3.26-11.21,4.77-16.87A23.9,23.9,0,0,1,319,376.88c3.32-3.33,7.41-7.4,11.31-11.28a46.46,46.46,0,0,0,13.72-33A30.49,30.49,0,0,0,335.1,311ZM477.67,162.27l-36.51,3.15a76.22,76.22,0,0,0-27.48,7.74,24.05,24.05,0,0,0-9.24,8.15l-19.59,29.38a24,24,0,0,0,0,26.62l18,27a24,24,0,0,0,10.54,8.78l20.52,10.1,55.64,29.22a249.21,249.21,0,0,0-11.88-150.14Z" /></svg>
    <svg id="key" viewBox="0 0 512 512"><path d="M303.06 348.91l.1.09-24 27a24 24 0 0 1-17.94 8H224v40a24 24 0 0 1-24 24h-40v40a24 24 0 0 1-24 24H24a24 24 0 0 1-24-24v-78a24 24 0 0 1 7-17l161.83-161.83-.11-.35a176.24 176.24 0 0 0 134.34 118.09z" style="opacity:.4" /><path d="M336 0a176 176 0 1 0 176 176A176 176 0 0 0 336 0zm48 176a48 48 0 1 1 48-48 48 48 0 0 1-48 48z" /></svg>
    <svg id="minus-circle" viewBox="0 0 512 512"><path d="M256 8C119 8 8 119 8 256s111 248 248 248 248-111 248-248S393 8 256 8zm144 276a12 12 0 0 1-12 12H124a12 12 0 0 1-12-12v-56a12 12 0 0 1 12-12h264a12 12 0 0 1 12 12z" style="opacity:.4" /><path  d="M400 284a12 12 0 0 1-12 12H124a12 12 0 0 1-12-12v-56a12 12 0 0 1 12-12h264a12 12 0 0 1 12 12z" /></svg>
    <svg id="pencil-ruler" viewBox="0 0 512 512"><path d="M138.25 127.05a7.92 7.92 0 0 1-11.2 0l-11.21-11.21a7.92 7.92 0 0 1 0-11.21L177.5 43 143.87 9.3A31.73 31.73 0 0 0 99 9.3L9.29 99a31.74 31.74 0 0 0 0 44.86l100.17 100.19L244 109.49l-44.08-44.12zm364.46 241.1l-33.63-33.64-61.68 61.68a7.92 7.92 0 0 1-11.21 0L385 385a7.92 7.92 0 0 1 0-11.21l61.68-61.68L402.52 268 267.94 402.51l100.21 100.2a31.7 31.7 0 0 0 44.85 0L502.71 413a31.72 31.72 0 0 0 0-44.85z" style="opacity:.4" /><path d="M497.94 59.32l-45.25-45.25a48.05 48.05 0 0 0-67.95 0l-46 46 113.21 113.2 46-46a48 48 0 0 0-.01-67.95zM19.08 379.68L.33 487.12a21.23 21.23 0 0 0 24.59 24.56l107.45-18.84 296.92-296.93L316.08 82.72z" /></svg>
    <svg id="people-arrows" viewBox="0 0 576 512"><path d="M96,128A64,64,0,1,0,32,64,64,64,0,0,0,96,128Zm32,32H64A64,64,0,0,0,0,224v96a32,32,0,0,0,32,32V480a32,32,0,0,0,32,32h64a32,32,0,0,0,32-32V383.61l-50.36-47.53a44.37,44.37,0,0,1,0-64L181.77,204c1.65-1.55,3.77-2.31,5.61-3.57A63.91,63.91,0,0,0,128,160Zm352-32a64,64,0,1,0-64-64A64,64,0,0,0,480,128Zm32,32H448a63.91,63.91,0,0,0-59.38,40.42c1.84,1.27,4,2,5.62,3.59l72.12,68.06a44.37,44.37,0,0,1,0,64L416,383.62V480a32,32,0,0,0,32,32h64a32,32,0,0,0,32-32V352a32,32,0,0,0,32-32V224A64,64,0,0,0,512,160Z" style="opacity:.4" /><path d="M444.4,310.44l-72.12,68.07A12,12,0,0,1,352,369.77V333.63H224v36.14a12,12,0,0,1-20.28,8.74L131.6,310.44a12.4,12.4,0,0,1,0-17.47l72.12-68.07A12,12,0,0,1,224,233.64v36H352v-36a12,12,0,0,1,20.28-8.74L444.4,293A12.4,12.4,0,0,1,444.4,310.44Z" /></svg>
     <svg id="plus-circle" viewBox="0 0 512 512"><path d="M256 8C119 8 8 119 8 256s111 248 248 248 248-111 248-248S393 8 256 8zm144 276a12 12 0 0 1-12 12h-92v92a12 12 0 0 1-12 12h-56a12 12 0 0 1-12-12v-92h-92a12 12 0 0 1-12-12v-56a12 12 0 0 1 12-12h92v-92a12 12 0 0 1 12-12h56a12 12 0 0 1 12 12v92h92a12 12 0 0 1 12 12z" style="opacity:.4" /><path d="M400 284a12 12 0 0 1-12 12h-92v92a12 12 0 0 1-12 12h-56a12 12 0 0 1-12-12v-92h-92a12 12 0 0 1-12-12v-56a12 12 0 0 1 12-12h92v-92a12 12 0 0 1 12-12h56a12 12 0 0 1 12 12v92h92a12 12 0 0 1 12 12z" /></svg>
    <svg id="poll-h" viewBox="0 0 448 512"><path d="M400 32H48A48 48 0 0 0 0 80v352a48 48 0 0 0 48 48h352a48 48 0 0 0 48-48V80a48 48 0 0 0-48-48zM96 144a16 16 0 0 1 16-16h128a16 16 0 0 1 16 16v32a16 16 0 0 1-16 16H112a16 16 0 0 1-16-16zm96 224a16 16 0 0 1-16 16h-64a16 16 0 0 1-16-16v-32a16 16 0 0 1 16-16h64a16 16 0 0 1 16 16zm160-96a16 16 0 0 1-16 16H112a16 16 0 0 1-16-16v-32a16 16 0 0 1 16-16h224a16 16 0 0 1 16 16z" style="opacity:.4" /><path d="M112 192h128a16 16 0 0 0 16-16v-32a16 16 0 0 0-16-16H112a16 16 0 0 0-16 16v32a16 16 0 0 0 16 16zm64 128h-64a16 16 0 0 0-16 16v32a16 16 0 0 0 16 16h64a16 16 0 0 0 16-16v-32a16 16 0 0 0-16-16zm160-96H112a16 16 0 0 0-16 16v32a16 16 0 0 0 16 16h224a16 16 0 0 0 16-16v-32a16 16 0 0 0-16-16z" /></svg>
    <svg id="radar" viewBox="0 0 512 512"><path d="M112,256c0-10.60156-5.49219-19.543-13.4375-25.36719C110.82422,154.49805,176.46094,96,256,96c35.44141,0,67.64844,12.2832,94.12891,31.93359l-45.6211,45.6211A93.809,93.809,0,0,0,256,160a96,96,0,1,0,96,96h64c0,79.53906-58.5,145.17578-134.63281,157.43555C275.54688,405.49414,266.60156,400,256,400s-19.54688,5.49414-25.36719,13.43555A159.59946,159.59946,0,0,1,98.5625,281.36523C106.50781,275.541,112,266.59961,112,256Zm336,0c0,96.25977-70.91406,175.74023-163.30469,189.625a31.59351,31.59351,0,0,1-57.39062,0A191.79742,191.79742,0,0,1,66.375,284.69531a31.595,31.595,0,0,1,0-57.39258C80.25781,134.91406,159.74219,64,256,64a190.7065,190.7065,0,0,1,117.57812,40.48633l39.86719-39.873A246.65387,246.65387,0,0,0,256,8C119.03125,8,8,119.0332,8,256S119.03125,504,256,504,504,392.9668,504,256ZM251.3125,271.99609l-11.30859-11.31054a16.00359,16.00359,0,0,1,0-22.627l40.71093-40.71289A61.78522,61.78522,0,0,0,256,192a64,64,0,1,0,64,64H289.9375l-15.99609,15.99609A16.00242,16.00242,0,0,1,251.3125,271.99609Z" style="opacity:.4" /><path d="M227.30469,445.625A191.79742,191.79742,0,0,1,66.375,284.69531,31.429,31.429,0,0,0,80,288c7.07031,0,13.26562-2.75,18.5625-6.63477A159.59946,159.59946,0,0,0,230.63281,413.43555C226.75,418.73242,224,424.92773,224,432A31.429,31.429,0,0,0,227.30469,445.625Zm54.0625-32.18945C285.25,418.73242,288,424.92773,288,432a31.429,31.429,0,0,1-3.30469,13.625C377.08594,431.74023,448,352.25977,448,256H416C416,335.53906,357.5,401.17578,281.36719,413.43555ZM475.3125,47.99609,464.00391,36.68555a16.00242,16.00242,0,0,0-22.62891,0l-67.79688,67.80078A190.69456,190.69456,0,0,0,256,64C159.74219,64,80.25781,134.91406,66.375,227.30273A31.42748,31.42748,0,0,1,80,224c7.07031,0,13.26562,2.74805,18.5625,6.63281C110.82422,154.49805,176.46094,96,256,96c35.44141,0,67.64844,12.28125,94.12891,31.93359l-45.6211,45.6211A93.809,93.809,0,0,0,256,160a96,96,0,1,0,96,96H320a64,64,0,1,1-64-64,61.81853,61.81853,0,0,1,24.71875,5.3457l-40.71484,40.71289a16.00359,16.00359,0,0,0,0,22.627l11.30859,11.31054a16.00242,16.00242,0,0,0,22.62891,0L475.3125,70.62305A15.99653,15.99653,0,0,0,475.3125,47.99609Z" /></svg>
    <svg id="resume" viewBox="0 0 438 475"><rect x="30.5" y="28" width="374.1" height="423" style="opacity:.4" /><g transform="translate(0.000000,550.000000) scale(0.100000,-0.100000)"><path d="M1335,4741c-93-43-149-122-161-224c-19-163,114-310,281-310c82,0,153,32,210,95C1870,4530,1612,4873,1335,4741z"/><path d="M2430,4430v-110h515h515v110v110h-515h-515V4430z"/><path d="M1280,4061c-123-33-246-114-312-205c-26-36-28-46-28-133v-93h515h515v100v100l-72,74c-82,82-176,136-280,161 C1531,4085,1362,4083,1280,4061z"/><path d="M2430,3860v-110h515h515v110v110h-515h-515V3860z"/><path d="M940,2825v-115h800h800v115v115h-800H940V2825z"/><path d="M2890,2825v-115h285h285v115v115h-285h-285V2825z"/><path d="M940,2255v-115h630h630v115v115h-630H940V2255z"/><path d="M2890,2255v-115h285h285v115v115h-285h-285V2255z"/><path d="M940,1680v-110h800h800v110v110h-800H940V1680z"/><path d="M2890,1680v-110h285h285v110v110h-285h-285V1680z"/></g></svg>
    <svg id="save" viewBox="0 0 448 512"><path d="M288 352a64 64 0 1 1-64-64 64 64 0 0 1 64 64z" style="opacity:.4" /><path d="M433.94 129.94l-83.88-83.88A48 48 0 0 0 316.12 32H48A48 48 0 0 0 0 80v352a48 48 0 0 0 48 48h352a48 48 0 0 0 48-48V163.88a48 48 0 0 0-14.06-33.94zM224 416a64 64 0 1 1 64-64 64 64 0 0 1-64 64zm96-204a12 12 0 0 1-12 12H76a12 12 0 0 1-12-12V108a12 12 0 0 1 12-12h228.52a12 12 0 0 1 8.48 3.52l3.48 3.48a12 12 0 0 1 3.52 8.48z" /></svg>
    <svg id="search" viewBox="0 0 512 512"><path d="M208 80a128 128 0 1 1-90.51 37.49A127.15 127.15 0 0 1 208 80m0-80C93.12 0 0 93.12 0 208s93.12 208 208 208 208-93.12 208-208S322.88 0 208 0z" style="opacity:.4" /><path d="M504.9 476.7L476.6 505a23.9 23.9 0 0 1-33.9 0L343 405.3a24 24 0 0 1-7-17V372l36-36h16.3a24 24 0 0 1 17 7l99.7 99.7a24.11 24.11 0 0 1-.1 34z" /></svg>
    <svg id="share-all" viewBox="0 0 576 512"><path d="M567.69 226.16l-176 152C376.3 391.44 352 380.69 352 360v-15.83l108.61-93.79a56 56 0 0 0 0-84.76L352 71.83V56c0-20.66 24.28-31.46 39.69-18.16l176 152a24 24 0 0 1 0 36.32z" style="opacity:.4" /><path d="M439.69 226.16l-176 152C248.3 391.44 224 380.69 224 360v-84.19c-108.67 12.53-151.1 58.85-112.59 182 5 16.09-14.42 28.56-28.08 18.63C39.58 444.63 0 383.77 0 322.33 0 191 94.82 149 224 138.78V56c0-20.66 24.28-31.46 39.69-18.16l176 152a24 24 0 0 1 0 36.32z" /></svg>
    <svg id="sign-in-alt" viewBox="0 0 512 512"><path d="M512 160v192a96 96 0 0 1-96 96h-84a12 12 0 0 1-12-12v-40a12 12 0 0 1 12-12h84a32 32 0 0 0 32-32V160a32 32 0 0 0-32-32h-84a12 12 0 0 1-12-12V76a12 12 0 0 1 12-12h84a96 96 0 0 1 96 96z" style="opacity:.4" /><path d="M369 273L201 441c-15 15-41 4.5-41-17v-96H24a23.94 23.94 0 0 1-24-24v-96a23.94 23.94 0 0 1 24-24h136V88c0-21.5 26-32 41-17l168 168a24.2 24.2 0 0 1 0 34z" /></svg>
    <svg id="sign-out-alt" viewBox="0 0 512 512"><path d="M64 160v192a32 32 0 0 0 32 32h84a12 12 0 0 1 12 12v40a12 12 0 0 1-12 12H96a96 96 0 0 1-96-96V160a96 96 0 0 1 96-96h84a12 12 0 0 1 12 12v40a12 12 0 0 1-12 12H96a32 32 0 0 0-32 32z" style="opacity:.4" /><path d="M288 424v-96H152a23.94 23.94 0 0 1-24-24v-96a23.94 23.94 0 0 1 24-24h136V88c0-21.4 25.9-32 41-17l168 168a24.2 24.2 0 0 1 0 34L329 441c-15 15-41 4.52-41-17z"  /></svg>
    <svg id="sliders-h" viewBox="0 0 512 512"><path d="M496 64H288v64h208a16 16 0 0 0 16-16V80a16 16 0 0 0-16-16zM16 128h176V64H16A16 16 0 0 0 0 80v32a16 16 0 0 0 16 16zm0 160h304v-64H16a16 16 0 0 0-16 16v32a16 16 0 0 0 16 16zm480-64h-80v64h80a16 16 0 0 0 16-16v-32a16 16 0 0 0-16-16zm0 160H160v64h336a16 16 0 0 0 16-16v-32a16 16 0 0 0-16-16zM0 400v32a16 16 0 0 0 16 16h48v-64H16a16 16 0 0 0-16 16z" style="opacity:.4" /><path d="M272 32h-32a16 16 0 0 0-16 16v96a16 16 0 0 0 16 16h32a16 16 0 0 0 16-16V48a16 16 0 0 0-16-16zm128 160h-32a16 16 0 0 0-16 16v96a16 16 0 0 0 16 16h32a16 16 0 0 0 16-16v-96a16 16 0 0 0-16-16zM144 352h-32a16 16 0 0 0-16 16v96a16 16 0 0 0 16 16h32a16 16 0 0 0 16-16v-96a16 16 0 0 0-16-16z"  /></svg>
    <svg id="spinner-third" viewBox="0 0 512 512"><path d="M478.71 364.58zm-22 6.11l-27.83-15.9a15.92 15.92 0 0 1-6.94-19.2A184 184 0 1 1 256 72c5.89 0 11.71.29 17.46.83-.74-.07-1.48-.15-2.23-.21-8.49-.69-15.23-7.31-15.23-15.83v-32a16 16 0 0 1 15.34-16C266.24 8.46 261.18 8 256 8 119 8 8 119 8 256s111 248 248 248c98 0 182.42-56.95 222.71-139.42-4.13 7.86-14.23 10.55-22 6.11z" style="opacity:.4" /><path d="M271.23 72.62c-8.49-.69-15.23-7.31-15.23-15.83V24.73c0-9.11 7.67-16.78 16.77-16.17C401.92 17.18 504 124.67 504 256a246 246 0 0 1-25 108.24c-4 8.17-14.37 11-22.26 6.45l-27.84-15.9c-7.41-4.23-9.83-13.35-6.2-21.07A182.53 182.53 0 0 0 440 256c0-96.49-74.27-175.63-168.77-183.38z" /></svg>
    <svg id="students" viewBox="0 0 64 64"><path fill="#FECD0D" d="M22.6,49h2.8c2,0,3.6,1.6,3.6,3.6V61l0,0H19l0,0v-8.4C19,50.6,20.6,49,22.6,49L22.6,49z" /><path fill="#27AE60" d="M38.6,49h2.8c2,0,3.6,1.6,3.6,3.6V61l0,0H35l0,0v-8.4C35,50.6,36.6,49,38.6,49L38.6,49z" /><path fill="#FD614B" d="M54.6,49h2.8c2,0,3.6,1.6,3.6,3.6V61l0,0H51l0,0v-8.4C51,50.6,52.6,49,54.6,49L54.6,49z" /><path fill="#8CE2FF" d="M6.6,49h2.8c2,0,3.6,1.6,3.6,3.6V61l0,0H3l0,0v-8.4C3,50.6,4.6,49,6.6,49L6.6,49z" /><rect x="3" y="3" fill="#27AE60" width="58" height="24" /><path fill="#FD614B" d="M32.9,10.9c-0.5-1-1.8-1.5-2.9-1.1l-10,5.2H13c-2.4,0-4.6,1.5-5.4,3.7L4.9,28c-0.4,1.1,0.1,2.4,1.3,2.8   c1.1,0.4,2.4-0.1,2.8-1.3c0,0,0,0,0,0l3-9.5v28h10V19l9.8-5.1c1.1-0.5,1.7-1.8,1.2-2.9C33,11,33,10.9,32.9,10.9z"/><polygon fill="#27AE60" points="12,27 12,23.6 10,27" /><path fill="#FD614B" d="M52,45c0,2.2,1.8,4,4,4s4-1.8,4-4c0-2.2-1.8-4-4-4C53.8,41,52,42.8,52,45z"/><path fill="#27AE60" d="M36,45c0,2.2,1.8,4,4,4s4-1.8,4-4c0-2.2-1.8-4-4-4C37.8,41,36,42.8,36,45z"/><path fill="#FECD0D" d="M20,45c0,2.2,1.8,4,4,4s4-1.8,4-4c0-2.2-1.8-4-4-4C21.8,41,20,42.8,20,45z" /><path fill="#8CE2FF" d="M4,45c0,2.2,1.8,4,4,4s4-1.8,4-4c0-2.2-1.8-4-4-4C5.8,41,4,42.8,4,45z" /><circle fill="#FD614B" cx="17" cy="10" r="4" /><path d="M61,2H3C2.4,2,2,2.4,2,3c0,0,0,0,0,0v20h2V4h56v22H25v2h36c0.6,0,1-0.4,1-1c0,0,0,0,0,0V3C62,2.4,61.6,2,61,2 C61,2,61,2,61,2z" /><rect x="35" y="7" width="20" height="2" /><rect x="38" y="13" width="20" height="2" /><rect x="34" y="19" width="20" height="2" /><path d="M3,62h10c0.6,0,1-0.4,1-1c0,0,0,0,0,0v-8.4c0-1.4-0.7-2.8-1.8-3.6h7.6c-1.1,0.9-1.8,2.2-1.8,3.6V61c0,0.6,0.4,1,1,1   c0,0,0,0,0,0h10c0.6,0,1-0.4,1-1c0,0,0,0,0,0v-8.4c0-1.7-1-3.3-2.5-4.1c2-1.9,2-5.1,0.1-7.1c-1.2-1.2-2.9-1.7-4.6-1.4V19.6l9.2-4.8   c1.6-0.7,2.4-2.6,1.7-4.2c-0.7-1.6-2.6-2.4-4.2-1.7c0,0-0.1,0-0.1,0l-8.1,4.2c0.3-0.7,0.5-1.4,0.5-2.1c0-2.8-2.2-5-5-5s-5,2.2-5,5   c0,1.1,0.4,2.1,1,3h0c-2.8,0-5.4,1.8-6.4,4.4l-2.7,9.2c-0.6,1.7,0.2,3.5,1.8,4.1c0.8,0.3,1.6,0.3,2.3,0c0.9-0.3,1.5-1,1.8-1.9   l1-3.3V41c-0.9-0.7-1.9-1-3-1c-2.8,0-5,2.2-5,5c0,1.4,0.5,2.6,1.5,3.6C3,49.3,2,50.9,2,52.6V61C2,61.6,2.4,62,3,62C3,62,3,62,3,62z    M28,60h-8v-7.4c0-1.4,1.2-2.6,2.6-2.6h2.8c1.4,0,2.6,1.2,2.6,2.6V60z M27,45c0,1.7-1.3,3-3,3s-3-1.3-3-3s1.3-3,3-3   C25.7,42,27,43.3,27,45z M14,11c0-1.7,1.3-3,3-3s3,1.3,3,3s-1.3,3-3,3C15.3,14,14,12.7,14,11z M8.1,29.2c-0.2,0.6-0.9,0.9-1.5,0.7   c0,0-0.1,0-0.1-0.1c-0.6-0.3-0.8-1-0.6-1.6l2.7-9.2C9.2,17.2,11,16,13,16h7.1c0.2,0,0.3,0,0.5-0.1l9.9-5.2c0.6-0.2,1.3,0,1.6,0.6   c0.2,0.3,0.2,0.7,0.1,1c-0.1,0.3-0.4,0.6-0.8,0.7l-9.8,5.1C21.2,18.3,21,18.6,21,19v22c-1.9,1.4-2.5,3.9-1.6,6H18V30h-2v17h-3.4   c0.3-0.6,0.4-1.3,0.4-2h0V20c0-0.6-0.4-1-1-1c-0.4,0-0.8,0.3-1,0.7L8.1,29.2z M8,42c1.7,0,3,1.3,3,3s-1.3,3-3,3s-3-1.3-3-3   C5,43.3,6.3,42,8,42z M4,52.6C4,51.2,5.2,50,6.6,50h2.8c1.4,0,2.6,1.2,2.6,2.6V60H4V52.6z" /><path d="M34,52.6V61c0,0.6,0.4,1,1,1c0,0,0,0,0,0h10c0.6,0,1-0.4,1-1c0,0,0,0,0,0v-8.4c0-1.7-1-3.3-2.5-4.1c2-1.9,2-5.1,0-7.1   c-1.9-2-5.1-2-7.1,0c-2,1.9-2,5.1,0,7.1c0,0,0,0,0,0C35,49.3,34,50.9,34,52.6z M40,42c1.7,0,3,1.3,3,3s-1.3,3-3,3s-3-1.3-3-3 C37,43.3,38.3,42,40,42z M36,52.6c0-1.4,1.2-2.6,2.6-2.6h2.8c1.4,0,2.6,1.2,2.6,2.6V60h-8V52.6z" /><path d="M59.5,48.5c2-1.9,2-5.1,0.1-7.1c-1.9-2-5.1-2-7.1-0.1c-2,1.9-2,5.1-0.1,7.1c0,0,0.1,0.1,0.1,0.1C51,49.3,50,50.9,50,52.6   V61c0,0.6,0.4,1,1,1c0,0,0,0,0,0h10c0.6,0,1-0.4,1-1c0,0,0,0,0,0v-8.4C62,50.9,61,49.3,59.5,48.5z M56,42c1.7,0,3,1.3,3,3   s-1.3,3-3,3s-3-1.3-3-3C53,43.3,54.3,42,56,42z M60,60h-8v-7.4c0-1.4,1.2-2.6,2.6-2.6h2.8c1.4,0,2.6,1.2,2.6,2.6V60z" /></svg>
    <svg id="sync-alt" viewBox="0 0 512 512"><path d="M8 454.06V320a24 24 0 0 1 24-24h134.06c21.38 0 32.09 25.85 17 41l-41.75 41.75A166.82 166.82 0 0 0 256.16 424c77.41-.07 144.31-53.14 162.78-126.85a12 12 0 0 1 11.65-9.15h57.31a12 12 0 0 1 11.81 14.18C478.07 417.08 377.19 504 256 504a247.14 247.14 0 0 1-171.31-68.69L49 471c-15.15 15.15-41 4.44-41-16.94z" style="opacity:.4" /><path d="M12.3 209.82C33.93 94.92 134.81 8 256 8a247.14 247.14 0 0 1 171.31 68.69L463 41c15.12-15.12 41-4.41 41 17v134a24 24 0 0 1-24 24H345.94c-21.38 0-32.09-25.85-17-41l41.75-41.75A166.8 166.8 0 0 0 255.85 88c-77.46.07-144.33 53.18-162.79 126.85A12 12 0 0 1 81.41 224H24.1a12 12 0 0 1-11.8-14.18z" /></svg>
    <svg id="tasks" viewBox="0 0 512 512"><path d="M496 384H208a16 16 0 0 0-16 16v32a16 16 0 0 0 16 16h288a16 16 0 0 0 16-16v-32a16 16 0 0 0-16-16zm0-320H208a16 16 0 0 0-16 16v32a16 16 0 0 0 16 16h288a16 16 0 0 0 16-16V80a16 16 0 0 0-16-16zm0 160H208a16 16 0 0 0-16 16v32a16 16 0 0 0 16 16h288a16 16 0 0 0 16-16v-32a16 16 0 0 0-16-16z" style="opacity:.4" /><path d="M139.61 35.5a12 12 0 0 0-17 0L58.93 98.81l-22.7-22.12a12 12 0 0 0-17 0L3.53 92.41a12 12 0 0 0 0 17l47.59 47.4a12.78 12.78 0 0 0 17.61 0l15.59-15.62L156.52 69a12.09 12.09 0 0 0 .09-17zm0 159.19a12 12 0 0 0-17 0l-63.68 63.72-22.7-22.1a12 12 0 0 0-17 0L3.53 252a12 12 0 0 0 0 17L51 316.5a12.77 12.77 0 0 0 17.6 0l15.7-15.69 72.2-72.22a12 12 0 0 0 .09-16.9zM64 368c-26.49 0-48.59 21.5-48.59 48S37.53 464 64 464a48 48 0 0 0 0-96z" /></svg>
    <svg id="tasks-alt" viewBox="0 0 512 512"><path d="M488.12 352H23.94A23.94 23.94 0 0 0 0 375.88V456a23.94 23.94 0 0 0 23.88 24h464.18A23.94 23.94 0 0 0 512 456.12V376a23.94 23.94 0 0 0-23.88-24zM464 432H48v-32h416zm24.12-240H23.94A23.94 23.94 0 0 0 0 215.88V296a23.94 23.94 0 0 0 23.88 24h464.18A23.94 23.94 0 0 0 512 296.12V216a23.94 23.94 0 0 0-23.88-24zM464 272H48v-32h416zm24.12-240H23.94A23.94 23.94 0 0 0 0 55.88V136a23.94 23.94 0 0 0 23.88 24h464.18A23.94 23.94 0 0 0 512 136.12V56a23.94 23.94 0 0 0-23.88-24zM464 112H48V80h416z" style="opacity:.4" /><path d="M48 80v32h304V80zm112 160H48v32h112zM48 432h240v-32H48z" /></svg>
    <svg id="telescope" viewBox="0 0 640 512"><path d="M263.3594,347.79914,136.3008,391.44163c-8.7539,3.00781-18.05078-.69335-21.26953-8.46678l-8.74219-21.10738L42.17971,388.42211A15.99837,15.99837,0,0,1,21.27737,379.762L1.21877,331.34018a16.00653,16.00653,0,0,1,8.66406-20.90425L73.9844,283.88129,65.24221,262.772c-3.21875-7.77342.73828-16.96481,9.05469-21.02925L380.4219,92.1336l78.125,188.62074-66.60157,22.87691a71.98089,71.98089,0,0,0-143.96093.36914A71.08619,71.08619,0,0,0,263.3594,347.79914Z" style="opacity:.4" /><path d="M638.77737,216.83064,553.06252,9.88181a15.99836,15.99836,0,0,0-20.90234-8.66014L414.84377,49.81923a15.99639,15.99639,0,0,0-8.65625,20.90426l85.71094,206.94883a16.00274,16.00274,0,0,0,20.90625,8.66014l117.3125-48.59757A15.99819,15.99819,0,0,0,638.77737,216.83064ZM376.13283,348.50812a71.27481,71.27481,0,0,0,15.85157-44.50773,72,72,0,0,0-144,0,71.27859,71.27859,0,0,0,15.87109,44.53507l-47.46484,142.404A16.00061,16.00061,0,0,0,231.57033,512h16.85938a16.00416,16.00416,0,0,0,15.17969-10.94139l42.16406-126.49585a71.05048,71.05048,0,0,0,28.44922-.002l42.168,126.4978A16.00046,16.00046,0,0,0,391.57033,512h16.85938a16.00062,16.00062,0,0,0,15.17969-21.06051ZM319.9844,328.00035a24,24,0,1,1,24-24A24.03627,24.03627,0,0,1,319.9844,328.00035Z" /></svg>
    <svg id="th-list" viewBox="0 0 512 512"><path d="M488 352H205.33a24 24 0 0 0-24 24v80a24 24 0 0 0 24 24H488a24 24 0 0 0 24-24v-80a24 24 0 0 0-24-24zm0-320H205.33a24 24 0 0 0-24 24v80a24 24 0 0 0 24 24H488a24 24 0 0 0 24-24V56a24 24 0 0 0-24-24zm0 160H205.33a24 24 0 0 0-24 24v80a24 24 0 0 0 24 24H488a24 24 0 0 0 24-24v-80a24 24 0 0 0-24-24z" style="opacity:.4" /><path d="M125.33 192H24a24 24 0 0 0-24 24v80a24 24 0 0 0 24 24h101.33a24 24 0 0 0 24-24v-80a24 24 0 0 0-24-24zm0-160H24A24 24 0 0 0 0 56v80a24 24 0 0 0 24 24h101.33a24 24 0 0 0 24-24V56a24 24 0 0 0-24-24zm0 320H24a24 24 0 0 0-24 24v80a24 24 0 0 0 24 24h101.33a24 24 0 0 0 24-24v-80a24 24 0 0 0-24-24z"  /></svg>
    <svg id="times" viewBox="0 0 352 512"><path d="M9.21,356.07a31.46,31.46,0,0,0,0,44.48l22.24,22.24a31.46,31.46,0,0,0,44.48,0L176,322.72,109.28,256ZM342.79,111.45,320.55,89.21a31.46,31.46,0,0,0-44.48,0L176,189.28,242.72,256,342.79,155.93a31.46,31.46,0,0,0,0-44.48Z" style="opacity:.4" /><path d="M342.79,356.07a31.46,31.46,0,0,1,0,44.48l-22.24,22.24a31.46,31.46,0,0,1-44.48,0L9.21,155.93a31.46,31.46,0,0,1,0-44.48L31.45,89.21a31.46,31.46,0,0,1,44.48,0Z"  /></svg>
    <svg id="times-circle" viewBox="0 0 512 512"><path d="M256 8C119 8 8 119 8 256s111 248 248 248 248-111 248-248S393 8 256 8zm121.6 313.1a12 12 0 0 1 0 17L338 377.6a12 12 0 0 1-17 0L256 312l-65.1 65.6a12 12 0 0 1-17 0L134.4 338a12 12 0 0 1 0-17l65.6-65-65.6-65.1a12 12 0 0 1 0-17l39.6-39.6a12 12 0 0 1 17 0l65 65.7 65.1-65.6a12 12 0 0 1 17 0l39.6 39.6a12 12 0 0 1 0 17L312 256z" style="opacity:.4" /><path d="M377.6 321.1a12 12 0 0 1 0 17L338 377.6a12 12 0 0 1-17 0L256 312l-65.1 65.6a12 12 0 0 1-17 0L134.4 338a12 12 0 0 1 0-17l65.6-65-65.6-65.1a12 12 0 0 1 0-17l39.6-39.6a12 12 0 0 1 17 0l65 65.7 65.1-65.6a12 12 0 0 1 17 0l39.6 39.6a12 12 0 0 1 0 17L312 256z" /></svg>
    <svg id="trash-alt" viewBox="0 0 448 512"><path d="M32 464a48 48 0 0 0 48 48h288a48 48 0 0 0 48-48V96H32zm272-288a16 16 0 0 1 32 0v224a16 16 0 0 1-32 0zm-96 0a16 16 0 0 1 32 0v224a16 16 0 0 1-32 0zm-96 0a16 16 0 0 1 32 0v224a16 16 0 0 1-32 0z" style="opacity:.4" /><path d="M432 32H312l-9.4-18.7A24 24 0 0 0 281.1 0H166.8a23.72 23.72 0 0 0-21.4 13.3L136 32H16A16 16 0 0 0 0 48v32a16 16 0 0 0 16 16h416a16 16 0 0 0 16-16V48a16 16 0 0 0-16-16zM128 160a16 16 0 0 0-16 16v224a16 16 0 0 0 32 0V176a16 16 0 0 0-16-16zm96 0a16 16 0 0 0-16 16v224a16 16 0 0 0 32 0V176a16 16 0 0 0-16-16zm96 0a16 16 0 0 0-16 16v224a16 16 0 0 0 32 0V176a16 16 0 0 0-16-16z" /></svg>
    <svg id="user" viewBox="0 0 448 512"><path d="M352 128A128 128 0 1 1 224 0a128 128 0 0 1 128 128z" style="opacity:.4" /><path d="M313.6 288h-16.7a174.1 174.1 0 0 1-145.8 0h-16.7A134.43 134.43 0 0 0 0 422.4V464a48 48 0 0 0 48 48h352a48 48 0 0 0 48-48v-41.6A134.43 134.43 0 0 0 313.6 288z" /></svg>
    <svg id="user-cog" viewBox="0 0 640 512"><path d="M636.3 388.2l-25.8-14.9a117.31 117.31 0 0 0 0-42.6l25.8-14.9a7.24 7.24 0 0 0 3.3-8.5 150.07 150.07 0 0 0-33.2-57.4 7.29 7.29 0 0 0-9-1.4l-25.8 14.9a117.4 117.4 0 0 0-36.9-21.3v-29.8a7.28 7.28 0 0 0-5.7-7.1 150.88 150.88 0 0 0-66.2 0 7.28 7.28 0 0 0-5.7 7.1v29.8a117.4 117.4 0 0 0-36.9 21.3l-25.8-14.9a7.31 7.31 0 0 0-9 1.4 150.07 150.07 0 0 0-33.2 57.4 7.37 7.37 0 0 0 3.3 8.5l25.8 14.9a117.31 117.31 0 0 0 0 42.6l-25.8 14.9a7.24 7.24 0 0 0-3.3 8.5 150.82 150.82 0 0 0 33.2 57.4 7.29 7.29 0 0 0 9 1.4l25.8-14.9a117.4 117.4 0 0 0 36.9 21.3v29.8a7.28 7.28 0 0 0 5.7 7.1 150.88 150.88 0 0 0 66.2 0 7.28 7.28 0 0 0 5.7-7.1v-29.8a117.4 117.4 0 0 0 36.9-21.3l25.8 14.9a7.31 7.31 0 0 0 9-1.4 150.07 150.07 0 0 0 33.2-57.4 7.37 7.37 0 0 0-3.3-8.5zM496 400.5a48.5 48.5 0 1 1 48.5-48.5 48.55 48.55 0 0 1-48.5 48.5z" style="opacity:.4" /><path d="M425.2 491.7v-9.2c-2.3-1.2-4.6-2.6-6.8-3.9l-7.9 4.6a39.23 39.23 0 0 1-48.5-7.3 182.34 182.34 0 0 1-40.2-69.6 39.11 39.11 0 0 1 17.9-45.7l7.9-4.6q-.15-3.9 0-7.8l-7.9-4.6a39.07 39.07 0 0 1-17.9-45.7c.9-2.9 2.2-5.8 3.2-8.7-3.8-.3-7.5-1.2-11.4-1.2h-16.7a174.08 174.08 0 0 1-145.8 0h-16.7A134.43 134.43 0 0 0 0 422.4V464a48 48 0 0 0 48 48h352a47.94 47.94 0 0 0 27.2-8.5 39 39 0 0 1-2-11.8zM224 256A128 128 0 1 0 96 128a128 128 0 0 0 128 128z" /></svg>
    <svg id="users" viewBox="0 0 640 512"><path d="M96 224a64 64 0 1 0-64-64 64.06 64.06 0 0 0 64 64zm480 32h-64a63.81 63.81 0 0 0-45.1 18.6A146.27 146.27 0 0 1 542 384h66a32 32 0 0 0 32-32v-32a64.06 64.06 0 0 0-64-64zm-512 0a64.06 64.06 0 0 0-64 64v32a32 32 0 0 0 32 32h65.9a146.64 146.64 0 0 1 75.2-109.4A63.81 63.81 0 0 0 128 256zm480-32a64 64 0 1 0-64-64 64.06 64.06 0 0 0 64 64z" style="opacity:.4" /><path d="M396.8 288h-8.3a157.53 157.53 0 0 1-68.5 16c-24.6 0-47.6-6-68.5-16h-8.3A115.23 115.23 0 0 0 128 403.2V432a48 48 0 0 0 48 48h288a48 48 0 0 0 48-48v-28.8A115.23 115.23 0 0 0 396.8 288zM320 256a112 112 0 1 0-112-112 111.94 111.94 0 0 0 112 112z" /></svg>
    <svg id="users-class" viewBox="0 0 640 512"><path d="M608 217a95.26 95.26 0 0 0-64-25V64H96v128a95.28 95.28 0 0 0-64 25V49.59C32 22.25 53.53 0 80 0h480c26.47 0 48 22.25 48 49.59z" style="opacity:.4" /><path d="M576 384h-64a64 64 0 0 0-64 64v32a32 32 0 0 0 32 32h128a32 32 0 0 0 32-32v-32a64 64 0 0 0-64-64zm-32-32a64 64 0 1 0-64-64 64 64 0 0 0 64 64zm-192 32h-64a64 64 0 0 0-64 64v32a32 32 0 0 0 32 32h128a32 32 0 0 0 32-32v-32a64 64 0 0 0-64-64zm-224 0H64a64 64 0 0 0-64 64v32a32 32 0 0 0 32 32h128a32 32 0 0 0 32-32v-32a64 64 0 0 0-64-64zm192-32a64 64 0 1 0-64-64 64 64 0 0 0 64 64zm-224 0a64 64 0 1 0-64-64 64 64 0 0 0 64 64z" /></svg>
    <svg id="users-cog" viewBox="0 0 640 512"><path d="M636.3 356.1l-25.8-14.9a117.31 117.31 0 0 0 0-42.6l25.8-14.9a7.24 7.24 0 0 0 3.3-8.5 150.07 150.07 0 0 0-33.2-57.4 7.29 7.29 0 0 0-9-1.4l-25.8 14.9a117.4 117.4 0 0 0-36.9-21.3v-29.8a7.28 7.28 0 0 0-5.7-7.1 150.88 150.88 0 0 0-66.2 0 7.28 7.28 0 0 0-5.7 7.1V210a117.4 117.4 0 0 0-36.9 21.3l-25.8-14.9a7.31 7.31 0 0 0-9 1.4 150.07 150.07 0 0 0-33.2 57.4 7.37 7.37 0 0 0 3.3 8.5l25.8 14.9a117.31 117.31 0 0 0 0 42.6l-25.8 14.9a7.24 7.24 0 0 0-3.3 8.5 150.82 150.82 0 0 0 33.2 57.4 7.29 7.29 0 0 0 9 1.4l25.8-14.9a117.4 117.4 0 0 0 36.9 21.3v29.8a7.28 7.28 0 0 0 5.7 7.1 150.88 150.88 0 0 0 66.2 0 7.28 7.28 0 0 0 5.7-7.1v-29.8a117.4 117.4 0 0 0 36.9-21.3l25.8 14.9a7.31 7.31 0 0 0 9-1.4 150.07 150.07 0 0 0 33.2-57.4 7.37 7.37 0 0 0-3.3-8.5zM496 368.4a48.5 48.5 0 1 1 48.5-48.5 48.55 48.55 0 0 1-48.5 48.5z" style="opacity:.4" /><path d="M320 255.9c1.9 0 3.7-.5 5.6-.6a184.35 184.35 0 0 1 36.3-59.2 39.41 39.41 0 0 1 28.9-12.6 38.44 38.44 0 0 1 19.6 5.3l7.9 4.6c.8-.5 1.6-.9 2.4-1.4a110.69 110.69 0 0 0 11.2-48A112 112 0 1 0 320 255.9zm-146.9 18.6a63.81 63.81 0 0 0-45.1-18.6H64a64.06 64.06 0 0 0-64 64v32a32 32 0 0 0 32 32h65.9a146.64 146.64 0 0 1 75.2-109.4zM96 223.9a64 64 0 1 0-64-64 64.06 64.06 0 0 0 64 64zm329.2 226.5c-2.3-1.2-4.6-2.6-6.8-3.9-8.2 4.8-15.3 9.8-27.5 9.8a39.75 39.75 0 0 1-28.9-12.6 182.34 182.34 0 0 1-40.2-69.6c-10.7-34.5 24.9-49.7 25.8-50.3q-.15-3.9 0-7.8l-7.9-4.6a40.73 40.73 0 0 1-9.8-8.1c-3.3.2-6.5.6-9.8.6-24.6 0-47.6-6-68.5-16h-8.3A115.25 115.25 0 0 0 128 403.1v28.8a48 48 0 0 0 48 48h255.4a38.5 38.5 0 0 1-6.2-20.3z" /></svg>
  </defs>
</svg>
